{
 "asset": {
  "version": "2.0",
  "generator": "make-sample-level.mjs"
 },
 "scene": 0,
 "scenes": [
  {
   "nodes": [
    0,
    1,
    2,
    3,
    4,
    5,
    6,
    7,
    8,
    9,
    10,
    11,
    12,
    13,
    14,
    15,
    16,
    17,
    18,
    19,
    20,
    21,
    22,
    23,
    24,
    25,
    26,
    27,
    28,
    29,
    30,
    31,
    32,
    33,
    34,
    35,
    36,
    37,
    38,
    39,
    40,
    41,
    42,
    43,
    44,
    45,
    46,
    47,
    48,
    49,
    50,
    51,
    52,
    53,
    54,
    55,
    56,
    57,
    58,
    59,
    60,
    61,
    62,
    63,
    64,
    65,
    66,
    67,
    68,
    69
   ]
  }
 ],
 "nodes": [
  {
   "name": "WALK_start",
   "mesh": 0,
   "translation": [
    0,
    -1,
    -10
   ],
   "scale": [
    9,
    2,
    28
   ]
  },
  {
   "name": "MOVER_ferry",
   "mesh": 2,
   "translation": [
    0,
    -0.25,
    -27
   ],
   "scale": [
    3,
    0.5,
    3
   ],
   "extras": {
    "axis": "x",
    "range": 2,
    "speed": 0.9
   }
  },
  {
   "name": "CRUMBLE_step",
   "mesh": 2,
   "translation": [
    0,
    -0.25,
    -32
   ],
   "scale": [
    3,
    0.5,
    3
   ]
  },
  {
   "name": "WALK_end",
   "mesh": 0,
   "translation": [
    0,
    -1,
    -48
   ],
   "scale": [
    9,
    2,
    24
   ]
  },
  {
   "name": "WALK_pedestal",
   "mesh": 1,
   "translation": [
    0,
    0.3,
    -56
   ],
   "scale": [
    2.4,
    0.6,
    2.4
   ]
  },
  {
   "name": "COL_ledge",
   "mesh": 4,
   "translation": [
    3,
    0.5,
    -42
   ],
   "scale": [
    2,
    1,
    2
   ]
  },
  {
   "name": "ledge_rock",
   "mesh": 1,
   "translation": [
    3,
    0.5,
    -42
   ],
   "scale": [
    2,
    1,
    2
   ]
  },
  {
   "name": "cliff_-1_-2",
   "mesh": 1,
   "translation": [
    -6,
    0,
    2
   ],
   "scale": [
    3,
    3,
    6
   ]
  },
  {
   "name": "tree_-1_-2",
   "mesh": 3,
   "translation": [
    -7.5,
    3,
    3.5
   ],
   "scale": [
    2,
    3,
    2
   ]
  },
  {
   "name": "cliff_1_-2",
   "mesh": 1,
   "translation": [
    6,
    0,
    2
   ],
   "scale": [
    3,
    3,
    6
   ]
  },
  {
   "name": "tree_1_-2",
   "mesh": 3,
   "translation": [
    7.5,
    3,
    3.5
   ],
   "scale": [
    2,
    3,
    2
   ]
  },
  {
   "name": "cliff_-1_4",
   "mesh": 1,
   "translation": [
    -6,
    0,
    -4
   ],
   "scale": [
    3,
    3,
    6
   ]
  },
  {
   "name": "tree_-1_4",
   "mesh": 3,
   "translation": [
    -7.5,
    3,
    -2.5
   ],
   "scale": [
    2,
    3,
    2
   ]
  },
  {
   "name": "cliff_1_4",
   "mesh": 1,
   "translation": [
    6,
    0,
    -4
   ],
   "scale": [
    3,
    3,
    6
   ]
  },
  {
   "name": "tree_1_4",
   "mesh": 3,
   "translation": [
    7.5,
    3,
    -2.5
   ],
   "scale": [
    2,
    3,
    2
   ]
  },
  {
   "name": "cliff_-1_10",
   "mesh": 1,
   "translation": [
    -6,
    0,
    -10
   ],
   "scale": [
    3,
    3,
    6
   ]
  },
  {
   "name": "tree_-1_10",
   "mesh": 3,
   "translation": [
    -7.5,
    3,
    -8.5
   ],
   "scale": [
    2,
    3,
    2
   ]
  },
  {
   "name": "cliff_1_10",
   "mesh": 1,
   "translation": [
    6,
    0,
    -10
   ],
   "scale": [
    3,
    3,
    6
   ]
  },
  {
   "name": "tree_1_10",
   "mesh": 3,
   "translation": [
    7.5,
    3,
    -8.5
   ],
   "scale": [
    2,
    3,
    2
   ]
  },
  {
   "name": "cliff_-1_16",
   "mesh": 1,
   "translation": [
    -6,
    0,
    -16
   ],
   "scale": [
    3,
    3,
    6
   ]
  },
  {
   "name": "tree_-1_16",
   "mesh": 3,
   "translation": [
    -7.5,
    3,
    -14.5
   ],
   "scale": [
    2,
    3,
    2
   ]
  },
  {
   "name": "cliff_1_16",
   "mesh": 1,
   "translation": [
    6,
    0,
    -16
   ],
   "scale": [
    3,
    3,
    6
   ]
  },
  {
   "name": "tree_1_16",
   "mesh": 3,
   "translation": [
    7.5,
    3,
    -14.5
   ],
   "scale": [
    2,
    3,
    2
   ]
  },
  {
   "name": "cliff_-1_22",
   "mesh": 1,
   "translation": [
    -6,
    0,
    -22
   ],
   "scale": [
    3,
    3,
    6
   ]
  },
  {
   "name": "tree_-1_22",
   "mesh": 3,
   "translation": [
    -7.5,
    3,
    -20.5
   ],
   "scale": [
    2,
    3,
    2
   ]
  },
  {
   "name": "cliff_1_22",
   "mesh": 1,
   "translation": [
    6,
    0,
    -22
   ],
   "scale": [
    3,
    3,
    6
   ]
  },
  {
   "name": "tree_1_22",
   "mesh": 3,
   "translation": [
    7.5,
    3,
    -20.5
   ],
   "scale": [
    2,
    3,
    2
   ]
  },
  {
   "name": "cliff_-1_28",
   "mesh": 1,
   "translation": [
    -6,
    0,
    -28
   ],
   "scale": [
    3,
    3,
    6
   ]
  },
  {
   "name": "tree_-1_28",
   "mesh": 3,
   "translation": [
    -7.5,
    3,
    -26.5
   ],
   "scale": [
    2,
    3,
    2
   ]
  },
  {
   "name": "cliff_1_28",
   "mesh": 1,
   "translation": [
    6,
    0,
    -28
   ],
   "scale": [
    3,
    3,
    6
   ]
  },
  {
   "name": "tree_1_28",
   "mesh": 3,
   "translation": [
    7.5,
    3,
    -26.5
   ],
   "scale": [
    2,
    3,
    2
   ]
  },
  {
   "name": "cliff_-1_34",
   "mesh": 1,
   "translation": [
    -6,
    0,
    -34
   ],
   "scale": [
    3,
    3,
    6
   ]
  },
  {
   "name": "tree_-1_34",
   "mesh": 3,
   "translation": [
    -7.5,
    3,
    -32.5
   ],
   "scale": [
    2,
    3,
    2
   ]
  },
  {
   "name": "cliff_1_34",
   "mesh": 1,
   "translation": [
    6,
    0,
    -34
   ],
   "scale": [
    3,
    3,
    6
   ]
  },
  {
   "name": "tree_1_34",
   "mesh": 3,
   "translation": [
    7.5,
    3,
    -32.5
   ],
   "scale": [
    2,
    3,
    2
   ]
  },
  {
   "name": "cliff_-1_40",
   "mesh": 1,
   "translation": [
    -6,
    0,
    -40
   ],
   "scale": [
    3,
    3,
    6
   ]
  },
  {
   "name": "tree_-1_40",
   "mesh": 3,
   "translation": [
    -7.5,
    3,
    -38.5
   ],
   "scale": [
    2,
    3,
    2
   ]
  },
  {
   "name": "cliff_1_40",
   "mesh": 1,
   "translation": [
    6,
    0,
    -40
   ],
   "scale": [
    3,
    3,
    6
   ]
  },
  {
   "name": "tree_1_40",
   "mesh": 3,
   "translation": [
    7.5,
    3,
    -38.5
   ],
   "scale": [
    2,
    3,
    2
   ]
  },
  {
   "name": "cliff_-1_46",
   "mesh": 1,
   "translation": [
    -6,
    0,
    -46
   ],
   "scale": [
    3,
    3,
    6
   ]
  },
  {
   "name": "tree_-1_46",
   "mesh": 3,
   "translation": [
    -7.5,
    3,
    -44.5
   ],
   "scale": [
    2,
    3,
    2
   ]
  },
  {
   "name": "cliff_1_46",
   "mesh": 1,
   "translation": [
    6,
    0,
    -46
   ],
   "scale": [
    3,
    3,
    6
   ]
  },
  {
   "name": "tree_1_46",
   "mesh": 3,
   "translation": [
    7.5,
    3,
    -44.5
   ],
   "scale": [
    2,
    3,
    2
   ]
  },
  {
   "name": "cliff_-1_52",
   "mesh": 1,
   "translation": [
    -6,
    0,
    -52
   ],
   "scale": [
    3,
    3,
    6
   ]
  },
  {
   "name": "tree_-1_52",
   "mesh": 3,
   "translation": [
    -7.5,
    3,
    -50.5
   ],
   "scale": [
    2,
    3,
    2
   ]
  },
  {
   "name": "cliff_1_52",
   "mesh": 1,
   "translation": [
    6,
    0,
    -52
   ],
   "scale": [
    3,
    3,
    6
   ]
  },
  {
   "name": "tree_1_52",
   "mesh": 3,
   "translation": [
    7.5,
    3,
    -50.5
   ],
   "scale": [
    2,
    3,
    2
   ]
  },
  {
   "name": "cliff_-1_58",
   "mesh": 1,
   "translation": [
    -6,
    0,
    -58
   ],
   "scale": [
    3,
    3,
    6
   ]
  },
  {
   "name": "tree_-1_58",
   "mesh": 3,
   "translation": [
    -7.5,
    3,
    -56.5
   ],
   "scale": [
    2,
    3,
    2
   ]
  },
  {
   "name": "cliff_1_58",
   "mesh": 1,
   "translation": [
    6,
    0,
    -58
   ],
   "scale": [
    3,
    3,
    6
   ]
  },
  {
   "name": "tree_1_58",
   "mesh": 3,
   "translation": [
    7.5,
    3,
    -56.5
   ],
   "scale": [
    2,
    3,
    2
   ]
  },
  {
   "name": "SPAWN",
   "translation": [
    0,
    0,
    2
   ]
  },
  {
   "name": "CHECKPOINT_after_gap",
   "translation": [
    0,
    0,
    -37
   ]
  },
  {
   "name": "CRATE_bonus",
   "translation": [
    0,
    0,
    -8
   ],
   "extras": {
    "content": "about"
   }
  },
  {
   "name": "CRATE_basic",
   "translation": [
    -2,
    0,
    -14
   ]
  },
  {
   "name": "CRATE_basic.001",
   "translation": [
    2,
    0,
    -14
   ],
   "extras": {
    "content": "yomeru"
   }
  },
  {
   "name": "CRATE_bounce",
   "translation": [
    2.5,
    0,
    -19
   ]
  },
  {
   "name": "CRATE_activator",
   "translation": [
    -2.5,
    0,
    -40
   ]
  },
  {
   "name": "CRATE_basic.002",
   "translation": [
    0,
    0,
    -44
   ],
   "extras": {
    "ghost": true
   }
  },
  {
   "name": "CRATE_tnt",
   "translation": [
    -2,
    0,
    -50
   ],
   "extras": {
    "content": "contact"
   }
  },
  {
   "name": "CRATE_metal",
   "translation": [
    3,
    1,
    -42
   ]
  },
  {
   "name": "ENEMY_crab",
   "translation": [
    0,
    0,
    -47
   ],
   "extras": {
    "range": 3,
    "speed": 2
   }
  },
  {
   "name": "FRUIT.000",
   "translation": [
    0,
    0.9,
    -2
   ]
  },
  {
   "name": "FRUIT.001",
   "translation": [
    0,
    0.9,
    -3.5
   ]
  },
  {
   "name": "FRUIT.002",
   "translation": [
    0,
    0.9,
    -5
   ]
  },
  {
   "name": "FRUIT.003",
   "translation": [
    0,
    0.9,
    -6.5
   ]
  },
  {
   "name": "FRUIT.004",
   "translation": [
    0,
    0.9,
    -8
   ]
  },
  {
   "name": "FRUIT.005",
   "translation": [
    0,
    0.9,
    -9.5
   ]
  },
  {
   "name": "GEM",
   "translation": [
    0,
    2.5,
    -56
   ]
  },
  {
   "name": "BOUNDS",
   "mesh": 4,
   "translation": [
    0,
    0,
    -28
   ],
   "scale": [
    9,
    20,
    66
   ]
  }
 ],
 "meshes": [
  {
   "name": "cube_sand",
   "primitives": [
    {
     "attributes": {
      "POSITION": 0,
      "NORMAL": 1
     },
     "indices": 2,
     "material": 0
    }
   ]
  },
  {
   "name": "cube_rock",
   "primitives": [
    {
     "attributes": {
      "POSITION": 0,
      "NORMAL": 1
     },
     "indices": 2,
     "material": 1
    }
   ]
  },
  {
   "name": "cube_wood",
   "primitives": [
    {
     "attributes": {
      "POSITION": 0,
      "NORMAL": 1
     },
     "indices": 2,
     "material": 2
    }
   ]
  },
  {
   "name": "cube_leaf",
   "primitives": [
    {
     "attributes": {
      "POSITION": 0,
      "NORMAL": 1
     },
     "indices": 2,
     "material": 3
    }
   ]
  },
  {
   "name": "cube_marker",
   "primitives": [
    {
     "attributes": {
      "POSITION": 0,
      "NORMAL": 1
     },
     "indices": 2,
     "material": 4
    }
   ]
  }
 ],
 "materials": [
  {
   "name": "sand",
   "pbrMetallicRoughness": {
    "baseColorFactor": [
     0.91,
     0.76,
     0.49,
     1
    ],
    "metallicFactor": 0,
    "roughnessFactor": 0.9
   }
  },
  {
   "name": "rock",
   "pbrMetallicRoughness": {
    "baseColorFactor": [
     0.52,
     0.48,
     0.43,
     1
    ],
    "metallicFactor": 0,
    "roughnessFactor": 0.9
   }
  },
  {
   "name": "wood",
   "pbrMetallicRoughness": {
    "baseColorFactor": [
     0.61,
     0.42,
     0.23,
     1
    ],
    "metallicFactor": 0,
    "roughnessFactor": 0.9
   }
  },
  {
   "name": "leaf",
   "pbrMetallicRoughness": {
    "baseColorFactor": [
     0.23,
     0.62,
     0.3,
     1
    ],
    "metallicFactor": 0,
    "roughnessFactor": 0.9
   }
  },
  {
   "name": "marker",
   "pbrMetallicRoughness": {
    "baseColorFactor": [
     1,
     0,
     1,
     1
    ],
    "metallicFactor": 0,
    "roughnessFactor": 0.9
   }
  }
 ],
 "accessors": [
  {
   "bufferView": 0,
   "componentType": 5126,
   "count": 24,
   "type": "VEC3",
   "min": [
    -0.5,
    -0.5,
    -0.5
   ],
   "max": [
    0.5,
    0.5,
    0.5
   ]
  },
  {
   "bufferView": 1,
   "componentType": 5126,
   "count": 24,
   "type": "VEC3"
  },
  {
   "bufferView": 2,
   "componentType": 5123,
   "count": 36,
   "type": "SCALAR"
  }
 ],
 "bufferViews": [
  {
   "buffer": 0,
   "byteOffset": 0,
   "byteLength": 288,
   "target": 34962
  },
  {
   "buffer": 0,
   "byteOffset": 288,
   "byteLength": 288,
   "target": 34962
  },
  {
   "buffer": 0,
   "byteOffset": 576,
   "byteLength": 72,
   "target": 34963
  }
 ],
 "buffers": [
  {
   "byteLength": 648,
   "uri": "data:application/octet-stream;base64,"
  }
 ]
}